<svg xmlns="http://www.w3.org/2000/svg" viewBox="0 0 32 32" id="instagram"><g fill="#414753"><path d="M16 32c8.837 0 16-7.163 16-16S24.837 0 16 0 0 7.163 0 16s7.163 16 16 16zM16 .75C24.409.75 31.25 7.591 31.25 16S24.409 31.25 16 31.25.75 24.409.75 16 7.591.75 16 .75z"></path><path d="M16 29.57c7.495 0 13.57-6.076 13.57-13.57S23.495 2.43 16 2.43 2.43 8.505 2.43 16 8.505 29.57 16 29.57zm0-26.39c7.069 0 12.82 5.751 12.82 12.82S23.069 28.82 16 28.82 3.18 23.069 3.18 16 8.931 3.18 16 3.18z"></path><path d="M10.687 23.084h10.625c1 0 1.771-.771 1.771-1.771V10.687c0-1-.771-1.771-1.771-1.771H10.687c-1 0-1.771.771-1.771 1.771v10.626c0 .999.771 1.771 1.771 1.771zm7.969-11.954c0-.245.198-.443.443-.443h1.771c.245 0 .443.198.443.443v1.771a.443.443 0 0 1-.443.443h-1.771a.443.443 0 0 1-.443-.443V11.13zm-2.646 2.087c1.571 0 2.845 1.234 2.845 2.756s-1.273 2.756-2.845 2.756c-1.57 0-2.844-1.235-2.844-2.756.001-1.522 1.275-2.756 2.844-2.756zm-5.323 1.455l1.104.24a4.14 4.14 0 0 0-.183 1.215c0 2.354 1.972 4.265 4.402 4.265 2.431 0 4.403-1.91 4.403-4.265 0-.423-.064-.83-.182-1.215l1.082-.24v6.198c0 .31-.133.443-.443.443h-9.74c-.309 0-.443-.132-.443-.443v-6.198z"></path></g></svg>